PathFileType	4	(X/Y/Z)	Patient4_TMGait_0pt8_01_right_07.trc.trc
DataRate	CameraRate	NumFrames	NumMarkers	Units	OrigDataRate	OrigDataStartFrame	OrigNumFrames
86.956521739130	86.956521739130	5	33	mm	86.956521739130	1	       141
Frame#	Time	Sacral			L.Shoulder			Chest			R.Shoulder			Neck			R.ASIS			L.ASIS			R.Thigh.Superior			R.Thigh.Lateral			R.Thigh.Inferior			R.Patella			L.Thigh.Superior			L.Thigh.Lateral			L.Thigh.Inferior			L.Patella			L.Shank.Superior			L.Shank.Lateral			L.Shank.Inferior			R.Shank.Superior			R.Shank.Lateral			R.Shank.Inferior			R.Heel			R.Midfoot.Superior			R.Midfoot.Lateral			R.Toe			L.Heel			L.Midfoot.Lateral			L.Midfoot.Superior			L.Toe			L.Elbow			L.Wrist			R.Elbow			R.Wrist			
		X1	Y1	Z1	X2	Y2	Z2	X3	Y3	Z3	X4	Y4	Z4	X5	Y5	Z5	X6	Y6	Z6	X7	Y7	Z7	X8	Y8	Z8	X9	Y9	Z9	X10	Y10	Z10	X11	Y11	Z11	X12	Y12	Z12	X13	Y13	Z13	X14	Y14	Z14	X15	Y15	Z15	X16	Y16	Z16	X17	Y17	Z17	X18	Y18	Z18	X19	Y19	Z19	X20	Y20	Z20	X21	Y21	Z21	X22	Y22	Z22	X23	Y23	Z23	X24	Y24	Z24	X25	Y25	Z25	X26	Y26	Z26	X27	Y27	Z27	X28	Y28	Z28	X29	Y29	Z29	X30	Y30	Z30	X31	Y31	Z31	X32	Y32	Z32	X33	Y33	Z33	

1	7.580000000000	839.685824152315	1006.714426813696	460.821485503049	1029.757060222900	1434.168628822004	286.530062004823	1121.738850211236	1363.936421417332	454.090232209117	1028.376497150083	1438.506056491154	623.443444933400	1011.441882551357	1496.481017062008	443.291187567818	1061.962663152430	944.305906972365	583.321999036260	1057.869508097681	964.395389789585	309.415544668489	1148.249386653729	776.849791600035	557.931246310246	1106.473158674318	654.750275977725	631.756832915225	1201.914648850795	617.604331226986	558.542307541800	1220.567592375923	503.276774099965	580.715133565909	1107.028242226071	751.818829827000	337.243172040460	1016.815206480844	636.264352492648	280.139646187184	1099.895190503699	557.931014267602	345.168156413448	1099.536168924467	488.680764254043	356.628521660721	1071.231610883148	416.143123156146	348.810554212800	979.836115527498	303.132730970292	299.083463009706	1026.398498324917	192.249726613453	372.825052960956	1142.718603692516	428.554078572439	583.143838458155	1016.411846792802	392.808298519770	636.421794568037	1002.339222000028	283.523807004171	587.676062752194	802.775664857450	230.240416389084	546.769098901087	964.718816339596	162.016637717246	598.998206071225	853.134342781622	167.706430866214	624.419203233557	1020.729299398897	46.333590356980	630.381505307814	895.709817916086	37.966901817099	416.303246216210	967.626550441734	35.680206506331	333.558402112060	1051.123629336560	96.675061722796	359.925202702927	1178.651185660521	47.340685781109	327.190228051540	1005.673183469566	1084.643553396609	159.705813174288	1103.472581754389	842.082326049926	175.458562340442	993.266938163443	1091.092526019481	732.216332260551	1222.797473239962	980.762015610598	699.386990024100	
2	7.591500000000	839.046577058595	1006.903391288611	459.251220765934	1030.667215211463	1434.847675251442	286.326283730077	1121.449943195262	1364.209991104438	454.319009564471	1027.101859405785	1438.385984522614	623.262326789820	1011.365000359916	1496.842449617422	443.134429107203	1061.157515157244	945.410692307775	583.077163194224	1058.474087675580	965.011460876759	308.663032330513	1149.415557470309	780.774051337110	557.223604201027	1110.786665814741	658.177496574759	631.506629674607	1206.062326762360	622.540976127474	557.503301041668	1227.595656392376	509.643899503497	580.380175550283	1103.875101270802	750.713926037909	337.614835343466	1011.924757836966	636.329025845395	279.506007625455	1093.080359199237	556.768273750724	344.874903303941	1091.434900698420	487.759803425259	356.422345279407	1063.063723251534	415.696074790433	348.501485121451	971.397192280225	303.033137171252	298.652472848111	1017.142275234998	192.002858615815	372.619553663329	1153.421518859782	432.279123462336	583.156798398607	1029.997477050677	389.751322895906	636.656207325147	1021.867188678928	280.192642820662	587.928280829536	826.225781244208	215.961308904118	547.504991719612	991.356339013180	157.754790920610	600.226459983521	879.905720237553	156.647306920433	625.074777373066	1053.322819079973	45.299807984767	630.868754006523	885.981630455453	38.012600420322	416.293762518186	957.927925302463	35.668084882541	333.520278999747	1041.482443842445	96.589443325820	359.868383116671	1169.041637172713	46.992035798745	327.139415313282	1015.175545096196	1086.181817590005	157.207937647767	1124.644885522710	849.625017499676	174.328469679586	985.220591890125	1091.036477735965	730.824308925414	1200.996579046911	959.671049794488	703.165560805425	
3	7.603000000000	838.413120892042	1007.078345725601	457.728210236239	1031.589279622743	1435.488421978014	286.139748063407	1121.182431674007	1364.451292225797	454.560144254126	1025.861496963103	1438.237960296315	623.093418957127	1011.305502695674	1497.173842040241	442.988936867355	1060.329850573328	946.439201369729	582.840879278601	1059.084423704652	965.593241152406	307.941559913108	1150.506459575500	784.561639624853	556.528717206812	1114.934857759151	661.480205736406	631.244598521562	1210.004535131433	627.285545184525	556.467931970192	1234.365105206406	515.858142496689	580.046919525779	1100.752042934118	749.607618419665	337.994436356447	1007.084999290693	636.387691763537	278.889060182298	1086.324258004058	555.616052660330	344.586075773529	1083.410802265232	486.861316533659	356.212811983048	1054.985199340727	415.255935400256	348.191694800826	963.044161479748	302.935575578644	298.235770589489	1007.994507882549	191.759603695889	372.423306208500	1163.890827323002	435.897137942015	583.176493765323	1043.458036472700	386.619914368394	636.954598990520	1041.274065782494	276.848704077603	588.242910566881	849.674629929631	201.717370564179	548.358312298754	1017.882337569631	153.503663058423	601.470972965674	906.657890414537	145.674660256372	625.850125459586	1085.782694697154	44.390423928743	631.439001017151	876.378826519857	38.058328568620	416.280135010122	948.349118068650	35.657470604377	333.484011614112	1031.959796987860	96.507396976100	359.814696280774	1159.550037848525	46.649784644951	327.090044451857	1024.492721894569	1087.716157301700	154.755462887936	1145.509312406381	857.222780530035	173.272588013987	977.381952763030	1090.935574194825	729.435573595368	1179.127669555609	939.064389268377	706.908147802767	
4	7.614500000000	837.806398165719	1007.207622196384	456.295339913230	1032.542316748854	1436.042736729238	285.999337550502	1120.965162522979	1364.612686001336	454.836039838262	1024.696899646237	1438.019382003439	622.960479165786	1011.287780004297	1497.430391621008	442.877844948350	1059.489626199530	947.312646308128	582.633213285282	1059.709835215896	966.093612198006	307.287185143644	1151.437415969923	788.029610443969	555.871876439174	1118.717562817736	664.496893050990	630.987630380760	1213.512821091108	631.606310108695	555.467903486598	1240.593766552751	521.754551640361	579.725883936269	1097.656560424792	748.475588084924	338.381469701862	1002.288274259830	636.434116255945	278.302363504761	1079.614464696896	554.474304095454	344.303834427006	1075.461435669296	485.995642331365	355.992195146316	1046.997709868898	414.828786914112	347.878838932091	954.769429810664	302.844923000730	297.845980258692	998.966791626474	191.523962778534	372.243534753235	1173.920851653542	439.309343311247	583.225829008892	1056.769383024230	383.328248849593	637.397378114067	1060.587061844050	273.515583994306	588.693651914328	873.397654683629	187.524007323867	549.456559414808	1044.412516652092	149.356242469111	602.759794505027	933.650035950637	134.898901514246	626.863217555373	1118.217361395974	43.884263693090	632.158607162808	866.922262769859	38.105589481528	416.260699462732	938.905568023750	35.650072665954	333.452850764477	1022.571554565246	96.430478252243	359.767167529469	1150.189701281604	46.317756950647	327.043611390788	1033.507842930122	1089.248921450203	152.390156235542	1165.888155156798	865.069173463179	172.380799210530	969.866352628239	1090.767959909862	728.053765913838	1156.963316929205	919.440283430625	710.594540783710	
5	7.626000000000	837.250743128614	1007.261016958957	454.986907886932	1033.542350145401	1436.469223704874	285.932293414233	1120.824103593582	1364.651588860035	455.167065370974	1023.645887493738	1437.692563747701	622.886700680136	1011.334264978668	1497.572301088630	442.824003342690	1058.665751555212	947.973964107862	582.476475448953	1060.346197434805	966.466427274549	306.733580654263	1152.134788461970	791.013061058304	555.276742083564	1121.953842917111	667.080385601916	630.757239474355	1216.393051728136	635.299714920834	554.542063326420	1246.041564163334	527.189475890317	579.430219690765	1094.582689011685	747.292512500207	338.766367762389	997.510190041040	636.464260113289	277.756606059835	1072.922285895718	553.341734497897	344.028226322883	1067.564249377799	485.169429533442	355.752989162875	1039.077249282953	414.421010049197	347.561856110604	946.542490869194	302.766458676470	297.492963941161	990.044653778897	191.300737735461	372.085381352710	1183.347070758258	442.438884549305	583.327115023082	1069.939499855844	379.813192733077	638.056327458924	1079.860575178454	270.237569057054	589.341028320406	897.692201880072	173.418619276537	550.907635080850	1071.097575305434	145.435821059378	604.119417083871	961.163097649054	124.438582631054	628.202024324100	1150.764819341936	44.063023067320	633.053400128780	857.601786481056	38.156632269218	416.235648809055	929.583907022427	35.647339769226	333.429863432644	1013.304835815194	96.358904978308	359.728112865278	1140.945201208945	45.999287647071	327.001099535319	1042.142751987479	1090.781164472654	150.146000801852	1185.661654947591	873.353998567899	171.729061543365	962.736728511319	1090.527370499879	726.683238572326	1134.302598784868	901.230968386671	714.207603454055	
